:SAMPLES-PER-SECOND 30
:FULLY-SPECIFIED
:DEGREES
236
root  60.427 34.3646 12.6956 -166.526 -15.0742 -175.459
RightUpLeg  -31.6279 -3.552 5.29718
RightLeg  30.8371 -7.05251 -3.61116
RightFoot  -3.76039 0.00323934 0.476315
RightToes  -28.3005 -0.132395 -0.239982
Spine  8.5185 -2.65725 0.0795001
Spine1  16.2477 -4.33441 -2.68224
HEad  16.8371 28.2232 -12.5016
LeftShoulder1  0 -2.42657e-020 -4.95415e-022
LeftArm  -35.9076 7.29012 -84.7085
LeftForeArm  46.4352 -22.4297 -4.14739
LeftHand  -0.00113947 -8.81647 -0.355445
RightShoulder  0 2.42657e-020 1.07489e-018
RightArm  -32.4645 -19.6066 75.3695
RightForeArm  163.525 57.3765 163.586
RightHand  0.92975 28.4866 4.0324
LeftUpLeg  -22.4724 -6.74237 2.18563
LeftLeg  29.7397 -8.575 -4.17365
LeftFoot  -1.00475 0.00150633 0.171782
LeftToes  -10.9576 2.37847e-007 4.89147e-008
237
root  60.18 34.0819 11.5543 -167.248 -18.2197 -175.452
RightUpLeg  -33.3441 -2.06404 5.4543
RightLeg  27.2688 -6.90468 -3.00901
RightFoot  -4.14453 0.00398236 0.487691
RightToes  -30.0575 -0.144317 -0.252366
Spine  8.7563 -2.22942 -0.179206
Spine1  16.5371 -3.51194 -3.16927
HEad  17.973 26.7211 -11.4812
LeftShoulder1  0 -2.42657e-020 -4.95415e-022
LeftArm  -34.4177 5.87816 -85.119
LeftForeArm  45.5867 -22.7526 -4.21561
LeftHand  -0.0211558 -8.95827 -0.0999612
RightShoulder  0 2.42657e-020 1.07489e-018
RightArm  -24.8783 -17.0165 75.5568
RightForeArm  170.295 60.0994 161.698
RightHand  -0.823255 29.1048 -2.80114
LeftUpLeg  -21.9639 -9.619 2.45088
LeftLeg  33.0974 -8.38103 -4.7022
LeftFoot  -3.19753 0.0156199 0.559618
LeftToes  -10.8652 2.37847e-007 4.89147e-008
238
root  60.0175 33.6268 10.4307 -168.235 -22.1404 -174.894
RightUpLeg  -35.912 -2.19018 6.13239
RightLeg  25.5525 -8.63115 -3.4495
RightFoot  -4.80302 0.0142378 0.717141
RightToes  -28.2187 -0.131849 -0.239397
Spine  9.04693 -1.77716 -0.173957
Spine1  16.9439 -2.76437 -3.01083
HEad  19.2506 24.4443 -10.2322
LeftShoulder1  0 -2.42657e-020 -4.95415e-022
LeftArm  -33.1925 3.98901 -85.9132
LeftForeArm  45.2997 -22.7723 -4.22014
LeftHand  -0.024886 -8.93207 -0.051374
RightShoulder  0 2.42657e-020 1.07489e-018
RightArm  -18.2895 -13.9316 76.1976
RightForeArm  175.353 65.219 157.057
RightHand  -2.32398 29.6158 -8.4067
LeftUpLeg  -21.9624 -13.1798 3.36207
LeftLeg  37.3454 -7.65375 -5.07379
LeftFoot  -6.63328 0.0636795 1.09881
LeftToes  -11.4305 2.37847e-007 4.89147e-008
239
root  59.9201 32.99 9.26685 -169.431 -25.8486 -173.689
RightUpLeg  -39.5289 -3.42742 7.61065
RightLeg  25.8403 -9.6618 -3.91184
RightFoot  -4.54896 0.0150607 0.756854
RightToes  -28.3214 -0.132534 -0.240132
Spine  9.38056 -1.11867 0.0378523
Spine1  17.4578 -1.76326 -2.20469
HEad  20.2116 21.3412 -8.63268
LeftShoulder1  0 -2.42657e-020 -4.95415e-022
LeftArm  -32.7874 1.69804 -87.3138
LeftForeArm  45.4617 -22.4146 -4.14576
LeftHand  -0.0301207 -8.86185 0.0187698
RightShoulder  0 2.42657e-020 1.07489e-018
RightArm  -12.9718 -9.81738 77.3375
RightForeArm  172.556 73.0372 144.051
RightHand  -4.00759 30.0447 -14.4884
LeftUpLeg  -21.6906 -16.5721 4.85124
LeftLeg  41.3113 -6.78569 -5.21018
LeftFoot  -11.6481 0.181394 1.77821
LeftToes  -10.3184 2.37847e-007 4.89147e-008
240
root  59.7997 32.1863 8.1053 -170.331 -28.8951 -172.867
RightUpLeg  -43.6516 -5.57036 9.09208
RightLeg  26.8419 -7.67411 -3.27308
RightFoot  -3.66532 0.0021029 0.443355
RightToes  -31.6465 -0.155422 -0.263245
Spine  9.61427 -0.476177 -0.0512817
Spine1  17.76 -0.848441 -1.79409
HEad  21.2619 18.3319 -6.57136
LeftShoulder1  0 -2.42657e-020 -4.95415e-022
LeftArm  -33.4402 -0.0360567 -88.4994
LeftForeArm  44.0882 -22.4697 -4.15915
LeftHand  0.0120899 -8.70691 -0.529175
RightShoulder  0 2.42657e-020 1.07489e-018
RightArm  -6.83518 -3.53735 79.7219
RightForeArm  120.369 79.8215 82.291
RightHand  -6.58577 29.1564 -24.5837
LeftUpLeg  -21.2781 -20.3371 5.65556
LeftLeg  45.1377 -5.08198 -4.48048
LeftFoot  -17.2068 0.316865 2.09409
LeftToes  -9.18729 2.37847e-007 4.89147e-008
241
root  59.7035 31.3215 6.90436 -171.011 -31.9053 -172.537
RightUpLeg  -47.5912 -8.42329 10.8794
RightLeg  28.5713 -3.49532 -1.62702
RightFoot  -2.01805 -0.00674482 -0.0054047
RightToes  -38.0869 -0.203383 -0.304062
Spine  9.7953 0.0667467 -0.360453
Spine1  17.9209 -0.193778 -1.62024
HEad  22.1957 15.6981 -3.95525
LeftShoulder1  0 -2.42657e-020 -4.95415e-022
LeftArm  -34.0617 -1.4039 -89.1439
LeftForeArm  41.7981 -22.6148 -4.19231
LeftHand  -0.000284009 -8.40001 -0.366385
RightShoulder  0 2.42657e-020 1.07489e-018
RightArm  -2.95826 5.73634 85.014
RightForeArm  67.0534 62.8696 20.1562
RightHand  -7.78186 29.2058 -28.8974
LeftUpLeg  -22.0057 -22.9519 6.18776
LeftLeg  51.0681 -4.30018 -4.66716
LeftFoot  -21.06 0.44991 2.42007
LeftToes  -10.4503 2.37847e-007 4.89147e-008
242
root  59.6452 30.3427 5.55563 -171.421 -34.617 -171.477
RightUpLeg  -52.4146 -9.6923 13.4455
RightLeg  34.0415 1.93031 1.11682
RightFoot  0.446677 0.00201242 -0.138502
RightToes  -40.1322 -0.21954 -0.315868
Spine  10.5705 2.11009 -0.310976
Spine1  18.9554 4.35806 -2.53158
HEad  21.9122 12.3054 -1.12902
LeftShoulder1  0 -2.42657e-020 -4.95415e-022
LeftArm  -35.1627 -5.03387 -90.5566
LeftForeArm  39.9176 -22.6983 -4.21194
LeftHand  -0.00407913 -8.06463 -0.312358
RightShoulder  0 2.42657e-020 1.07489e-018
RightArm  -2.48412 15.5942 89.933
RightForeArm  61.763 39.6953 8.36751
RightHand  -6.31434 28.5266 -24.1192
LeftUpLeg  -24.4819 -22.9022 8.36346
LeftLeg  59.056 -5.06985 -7.30292
LeftFoot  -23.2082 0.766046 3.72926
LeftToes  -15.6625 2.37847e-007 4.89147e-008
243
root  59.4076 29.2958 4.01378 -172.221 -37.1283 -170.913
RightUpLeg  -56.284 -7.25274 12.7628
RightLeg  45.2813 5.01219 4.40293
RightFoot  3.28181 0.00154985 0.323379
RightToes  -34.7265 -0.177786 -0.283438
Spine  11.8622 4.42364 -0.217994
Spine1  20.6417 9.85655 -4.44819
HEad  22.1524 9.04438 0.855165
LeftShoulder1  0 -2.42657e-020 -4.95415e-022
LeftArm  -36.527 -8.60448 -92.0838
LeftForeArm  35.9435 -23.7138 -4.42864
LeftHand  0.00101271 -6.91523 -0.387101
RightShoulder  0 2.42657e-020 1.07489e-018
RightArm  -5.85373 25.0423 94.4779
RightForeArm  61.4026 24.7957 4.6176
RightHand  -3.76133 27.7991 -14.7496
LeftUpLeg  -25.3286 -23.2755 9.94492
LeftLeg  66.0979 -5.57628 -10.5496
LeftFoot  -24.2303 1.13447 5.28144
LeftToes  -21.1545 2.37847e-007 4.89147e-008
244
root  58.9978 28.4897 2.49599 -173.575 -39.5601 -171.097
RightUpLeg  -58.2559 -4.79241 10.7441
RightLeg  55.4961 1.87467 2.31574
RightFoot  0.387802 0.000817795 0.135658
RightToes  -24.8767 -0.110279 -0.214829
Spine  13.4092 6.24673 -0.382509
Spine1  22.6817 14.3036 -6.3164
HEad  23.3331 5.35287 3.02318
LeftShoulder1  0 -2.42657e-020 -4.95415e-022
LeftArm  -36.6921 -12.1063 -92.5115
LeftForeArm  30.8209 -24.5576 -4.61179
LeftHand  0.0643062 -6.5267 -1.49932
RightShoulder  0 2.42657e-020 1.07489e-018
RightArm  -26.5579 35.4141 99.5814
RightForeArm  79.0001 9.18651 1.54148
RightHand  0.114364 25.3135 0.879488
LeftUpLeg  -25.9749 -25.2439 10.2096
LeftLeg  73.7945 -5.01689 -13.6088
LeftFoot  -19.8236 0.953295 5.4515
LeftToes  -32.0732 2.37847e-007 4.89147e-008
245
root  58.6234 28.1394 1.11028 -174.755 -42.6113 -170.735
RightUpLeg  -57.4867 -4.64008 10.9062
RightLeg  60.1785 -0.268856 -0.494993
RightFoot  -5.25888 -0.00815051 0.2001
RightToes  -19.4114 -0.0782021 -0.172073
Spine  14.137 6.6892 -0.492526
Spine1  23.8137 14.9853 -5.87441
HEad  23.5628 1.45821 4.56689
LeftShoulder1  0 -2.42657e-020 -4.95415e-022
LeftArm  -37.694 -15.1223 -92.3956
LeftForeArm  30.844 -24.7588 -4.65487
LeftHand  0.0734953 -6.19691 -1.72956
RightShoulder  0 2.42657e-020 1.07489e-018
RightArm  -33.8178 39.1003 99.0675
RightForeArm  76.5879 1.80874 0.24192
RightHand  1.04731 12.9784 9.56285
LeftUpLeg  -30.1731 -26.6068 12.1569
LeftLeg  82.6299 -3.97653 -19.5803
LeftFoot  -9.84719 0.330208 3.83173
LeftToes  -35.8115 2.37847e-007 4.89147e-008
246
root  58.3255 28.2338 -0.164504 -175.63 -45.2554 -169.806
RightUpLeg  -55.7177 -3.83358 11.4023
RightLeg  61.5818 -1.86646 -3.06822
RightFoot  -8.45669 0.0200426 0.648694
RightToes  -17.4979 -0.0679539 -0.156406
Spine  14.3637 6.63811 -0.748889
Spine1  24.2754 14.2782 -4.68091
HEad  23.2833 -2.5398 7.62343
LeftShoulder1  0 -2.42657e-020 -4.95415e-022
LeftArm  -37.8168 -17.3987 -91.5014
LeftForeArm  30.4632 -25.9844 -4.92082
LeftHand  0.113887 -6.15683 -2.49014
RightShoulder  0 2.42657e-020 1.07489e-018
RightArm  -31.1789 39.2131 98.811
RightForeArm  69.3104 0.958263 0.112566
RightHand  0.903528 11.1184 9.63854
LeftUpLeg  -35.8489 -26.3141 15.5992
LeftLeg  88.522 -2.34214 -24.4191
LeftFoot  -4.52719 0.0787467 1.99198
LeftToes  -34.3873 2.37847e-007 4.89147e-008
247
root  57.9926 28.6535 -1.28906 -175.24 -47.7906 -170.191
RightUpLeg  -53.3614 -4.72186 11.4818
RightLeg  60.9068 -2.47919 -3.93498
RightFoot  -10.558 0.0572538 0.997257
RightToes  -16.1088 -0.0608455 -0.144823
Spine  14.9021 6.21166 -1.51683
Spine1  25.0277 13.3864 -5.24125
HEad  22.3503 -4.67903 10.3731
LeftShoulder1  0 -2.42657e-020 -4.95415e-022
LeftArm  -37.1819 -19.6311 -88.902
LeftForeArm  30.8204 -28.6972 -5.53012
LeftHand  0.193678 -6.8857 -3.59202
RightShoulder  0 2.42657e-020 1.07489e-018
RightArm  -33.0231 38.9705 100.509
RightForeArm  76.5476 2.32895 0.333213
RightHand  0.777549 15.251 6.17549
LeftUpLeg  -41.5854 -23.6719 17.2674
LeftLeg  88.8932 -2.04667 -23.1646
LeftFoot  -9.26392 0.310652 3.83285
LeftToes  -35.0744 2.37847e-007 4.89147e-008
248
root  57.6544 29.2077 -2.27339 -173.417 -50.4597 -171.956
RightUpLeg  -51.1562 -5.55067 10.4973
RightLeg  59.3938 -3.13548 -4.66861
RightFoot  -11.5308 0.0956138 1.32459
RightToes  -17.2007 -0.0664096 -0.153943
Spine  15.3294 5.56555 -2.55372
Spine1  25.5784 12.3167 -6.41911
HEad  21.1288 -7.08462 12.929
LeftShoulder1  0 -2.42657e-020 -4.95415e-022
LeftArm  -35.7065 -21.4976 -85.26
LeftForeArm  33.1422 -31.9293 -6.29918
LeftHand  0.341656 -7.94138 -5.29364
RightShoulder  0 2.42657e-020 1.07489e-018
RightArm  -34.3259 36.6172 102.351
RightForeArm  82.2127 6.62167 1.07355
RightHand  -0.422469 21.1652 -1.8915
LeftUpLeg  -47.3925 -20.0975 17.3237
LeftLeg  84.5432 -3.52614 -20.9633
LeftFoot  -11.9803 0.474988 4.52434
LeftToes  -34.7767 2.37847e-007 4.89147e-008
249
root  57.2726 29.7687 -3.22895 -171.424 -52.6219 -174.059
RightUpLeg  -48.5747 -4.611 8.77033
RightLeg  57.5508 -3.90424 -5.40068
RightFoot  -12.0623 0.134551 1.6511
RightToes  -17.6752 -0.0688819 -0.157873
Spine  15.5449 4.99961 -3.46969
Spine1  25.9632 11.4376 -7.32814
HEad  20.3494 -10.1011 15.5653
LeftShoulder1  0 -2.42657e-020 -4.95415e-022
LeftArm  -33.1333 -22.3055 -81.5581
LeftForeArm  31.4992 -36.0472 -7.3683
LeftHand  0.513215 -8.44504 -7.31872
RightShoulder  0 2.42657e-020 1.07489e-018
RightArm  -23.8864 32.3725 101.776
RightForeArm  72.1594 12.4459 2.15399
RightHand  -2.50545 24.6121 -11.0815
LeftUpLeg  -51.2114 -17.1704 16.8157
LeftLeg  75.5215 -6.27028 -18.436
LeftFoot  -10.8976 0.358918 3.76139
LeftToes  -33.9696 2.37847e-007 4.89147e-008
250
root  56.8363 30.1706 -4.18052 -169.392 -54.5817 -176.427
RightUpLeg  -46.0514 -2.32242 6.44086
RightLeg  56.3683 -4.28655 -5.66758
RightFoot  -13.0176 0.17629 1.92273
RightToes  -18.2192 -0.0739148 -0.16563
Spine  15.4609 4.60877 -4.2614
Spine1  25.8681 11.1874 -8.65885
HEad  20.0011 -13.5548 18.4697
LeftShoulder1  0 -2.42657e-020 -4.95415e-022
LeftArm  -31.6261 -21.8327 -78.0489
LeftForeArm  33.8722 -41.6339 -9.01825
LeftHand  0.432431 -8.55052 -6.15459
RightShoulder  0 2.42657e-020 1.07489e-018
RightArm  -20.4506 28.4092 100.63
RightForeArm  62.38 16.1532 2.87334
RightHand  -3.66137 25.2828 -15.8548
LeftUpLeg  -53.2913 -16.5949 16.8266
LeftLeg  62.8832 -8.59935 -14.093
LeftFoot  -9.88663 0.250461 2.89515
LeftToes  -26.3161 2.37847e-007 4.89147e-008
